<svg width="17" height="14" viewBox="0 0 17 14" fill="none" xmlns="http://www.w3.org/2000/svg">
<path id="Vector" fill-rule="evenodd" clip-rule="evenodd" d="M0 7C0 6.73483 0.111929 6.48052 0.311164 6.29302C0.5104 6.10552 0.78062 6.00018 1.06238 6.00018H13.3711L8.80927 1.70896C8.60978 1.52122 8.49771 1.26659 8.49771 1.00108C8.49771 0.735579 8.60978 0.48095 8.80927 0.293211C9.00875 0.105471 9.27932 0 9.56143 0C9.84355 0 10.1141 0.105471 10.3136 0.293211L16.6879 6.29213C16.7868 6.385 16.8653 6.49533 16.9189 6.6168C16.9724 6.73827 17 6.86849 17 7C17 7.13151 16.9724 7.26173 16.9189 7.3832C16.8653 7.50467 16.7868 7.615 16.6879 7.70787L10.3136 13.7068C10.1141 13.8945 9.84355 14 9.56143 14C9.27932 14 9.00875 13.8945 8.80927 13.7068C8.60978 13.5191 8.49771 13.2644 8.49771 12.9989C8.49771 12.7334 8.60978 12.4788 8.80927 12.291L13.3711 7.99982H1.06238C0.78062 7.99982 0.5104 7.89448 0.311164 7.70698C0.111929 7.51948 0 7.26517 0 7Z" fill="white"/>
</svg>
