<svg width="200" height="200" viewBox="0 0 200 200" fill="none" xmlns="http://www.w3.org/2000/svg">
<rect width="199.667" height="200" rx="8" fill="#F8F8F8"/>
<path d="M99.8336 81C94.8217 81.0606 90.032 83.0818 86.4878 86.6319C82.9436 90.1821 80.9257 94.9797 80.8652 100C80.9257 105.02 82.9436 109.818 86.4878 113.368C90.032 116.918 94.8217 118.939 99.8336 119C104.846 118.939 109.635 116.918 113.179 113.368C116.724 109.818 118.742 105.02 118.802 100C118.742 94.9797 116.724 90.1821 113.179 86.6319C109.635 83.0818 104.846 81.0606 99.8336 81ZM110.673 101.357H101.189V110.857H98.4787V101.357H88.9945V98.6429H98.4787V89.1429H101.189V98.6429H110.673V101.357Z" fill="#00D1FF"/>
</svg>
